<svg xmlns="http://www.w3.org/2000/svg" x="0px" y="0px"
width="20" height="20"
viewBox="0 0 172 172"
style=" fill:#000000;"><g transform="translate(1.978,1.978) scale(0.977,0.977)"><g fill="none" fill-rule="nonzero" stroke="none" stroke-width="none" stroke-linecap="butt" stroke-linejoin="none" stroke-miterlimit="10" stroke-dasharray="" stroke-dashoffset="0" font-family="none" font-weight="none" font-size="none" text-anchor="none" style="mix-blend-mode: normal"><g fill="#000000" stroke="#000000" stroke-width="4" stroke-linejoin="round"><path d="M165.12,86c0,43.65844 -35.46156,79.12 -79.12,79.12c-43.65844,0 -79.12,-35.46156 -79.12,-79.12c0,-43.65844 35.46156,-79.12 79.12,-79.12c43.65844,0 79.12,35.46156 79.12,79.12zM13.76,86c0,39.93625 32.30375,72.24 72.24,72.24c39.93625,0 72.24,-32.30375 72.24,-72.24c0,-39.93625 -32.30375,-72.24 -72.24,-72.24c-39.93625,0 -72.24,32.30375 -72.24,72.24zM70.735,51.4925l17.2,26.5525h0.86l17.63,-26.5525h10.535l-23.435,34.0775l22.8975,33.8625h-10.965l-17.415,-26.23h-0.7525l-17.63,26.23h-10.32l23.005,-34.185l-22.79,-33.755z"></path></g><path d="M0,172v-172h172v172z" fill="none" stroke="none" stroke-width="1" stroke-linejoin="miter"></path><g fill="#000000" stroke="none" stroke-width="1" stroke-linejoin="miter"><path d="M86,6.88c-43.65844,0 -79.12,35.46156 -79.12,79.12c0,43.65844 35.46156,79.12 79.12,79.12c43.65844,0 79.12,-35.46156 79.12,-79.12c0,-43.65844 -35.46156,-79.12 -79.12,-79.12zM86,13.76c39.93625,0 72.24,32.30375 72.24,72.24c0,39.93625 -32.30375,72.24 -72.24,72.24c-39.93625,0 -72.24,-32.30375 -72.24,-72.24c0,-39.93625 32.30375,-72.24 72.24,-72.24zM59.555,51.4925l22.79,33.755l-23.005,34.185h10.32l17.63,-26.23h0.7525l17.415,26.23h10.965l-22.8975,-33.8625l23.435,-34.0775h-10.535l-17.63,26.5525h-0.86l-17.2,-26.5525z"></path></g><path d="" fill="none" stroke="none" stroke-width="1" stroke-linejoin="miter"></path></g></g></svg>